<svg width="16" height="16" viewBox="0 0 16 16" xmlns="http://www.w3.org/2000/svg"><path fill-rule="evenodd" d="M4.91675 7C4.91675 6.58579 5.25253 6.25 5.66675 6.25H10.3334C10.7476 6.25 11.0834 6.58579 11.0834 7C11.0834 7.41421 10.7476 7.75 10.3334 7.75H5.66675C5.25253 7.75 4.91675 7.41421 4.91675 7Z" fill="#6F7383"></path><path fill-rule="evenodd" d="M1.71959 2.00645C2.46251 1.26354 3.49615 0.870117 4.66658 0.870117H11.3333C12.5037 0.870117 13.5373 1.26354 14.2802 2.00645C15.0232 2.74937 15.4166 3.78301 15.4166 4.95345V8.95345C15.4166 10.1239 15.0232 11.1575 14.2802 11.9004C13.7006 12.4801 12.9438 12.847 12.0833 12.9803V13.7068C12.0833 14.8428 10.8196 15.5073 9.88455 14.8846M9.8839 14.8842L7.10659 13.0368H4.66658C3.49615 13.0368 2.46251 12.6434 1.71959 11.9004C0.976671 11.1575 0.583252 10.1239 0.583252 8.95345V4.95345C0.583252 3.78301 0.976671 2.74937 1.71959 2.00645M2.78025 3.06711C2.3565 3.49086 2.08325 4.12389 2.08325 4.95345V8.95345C2.08325 9.78302 2.3565 10.416 2.78025 10.8398C3.204 11.2635 3.83702 11.5368 4.66658 11.5368H7.33325C7.48106 11.5368 7.62557 11.5805 7.74863 11.6623L10.5833 13.5478V12.2868C10.5833 11.8726 10.919 11.5368 11.3333 11.5368C12.1628 11.5368 12.7958 11.2635 13.2196 10.8398C13.6433 10.416 13.9166 9.78302 13.9166 8.95345V4.95345C13.9166 4.12389 13.6433 3.49086 13.2196 3.06711C12.7958 2.64336 12.1628 2.37012 11.3333 2.37012H4.66658C3.83702 2.37012 3.204 2.64336 2.78025 3.06711Z" fill="#6F7383"></path></svg>