<svg width="16" height="16" viewBox="0 0 16 16" xmlns="http://www.w3.org/2000/svg"><path fill-rule="evenodd" clip-rule="evenodd" d="M15.1971 1.86358C15.49 1.57069 15.49 1.09582 15.1971 0.802922C14.9042 0.510029 14.4293 0.510029 14.1364 0.802922L11.9576 2.98172C10.763 2.1811 9.41024 1.73657 7.9999 1.73657C5.32859 1.73657 2.92164 3.31184 1.29406 5.8702C0.898865 6.48961 0.726562 7.26919 0.726562 8.00324C0.726562 8.73727 0.898856 9.51683 1.29403 10.1362L1.29406 5.8702L1.29437 10.1368C1.75821 10.8647 2.28833 11.5159 2.86715 12.0722L0.802922 14.1364C0.510029 14.4293 0.510029 14.9042 0.802922 15.1971C1.09582 15.49 1.57069 15.49 1.86358 15.1971L6.84358 10.2171L6.85167 10.2089L10.2089 6.85167C10.2116 6.849 10.2144 6.8463 10.2171 6.84358L15.1971 1.86358ZM9.62304 5.31632L10.8716 4.06773C9.96926 3.52124 8.9924 3.23657 7.9999 3.23657C5.96471 3.23657 3.98512 4.43444 2.55938 6.67578L2.55875 6.67677C2.35417 6.99728 2.22656 7.47748 2.22656 8.00324C2.22656 8.52899 2.35417 9.0092 2.55875 9.32971L2.5591 9.33025C2.96933 9.97416 3.43253 10.5386 3.92806 11.0113L5.31632 9.62304C5.029 9.1501 4.86328 8.59531 4.86328 7.99995C4.86328 6.26573 6.26573 4.86328 7.99995 4.86328C8.59531 4.86328 9.1501 5.029 9.62304 5.31632ZM6.36328 7.99995C6.36328 7.09416 7.09416 6.36328 7.99995 6.36328C8.17434 6.36328 8.34172 6.39024 8.49872 6.44051L6.44051 8.49872C6.39024 8.34172 6.36328 8.17434 6.36328 7.99995ZM12.8967 4.70224C13.2195 4.44263 13.6916 4.49382 13.9512 4.81658C14.2115 5.14023 14.4684 5.48942 14.7061 5.86379C15.1012 6.48316 15.2735 7.26267 15.2735 7.99665C15.2735 8.7307 15.1012 9.51028 14.706 10.1297C13.0784 12.6881 10.6715 14.2633 8.00014 14.2633C7.07361 14.2633 6.1683 14.0674 5.32243 13.7112C4.94068 13.5505 4.76151 13.1107 4.92225 12.7289C5.08299 12.3472 5.52276 12.168 5.90452 12.3288C6.57865 12.6126 7.28668 12.7633 8.00014 12.7633C10.0353 12.7633 12.0149 11.5654 13.4407 9.32411L13.4413 9.32312C13.6459 9.0026 13.7735 8.5224 13.7735 7.99665C13.7735 7.47089 13.6459 6.99069 13.4413 6.67017L13.4402 6.66852C13.238 6.34993 13.0152 6.04612 12.7824 5.75672C12.5228 5.43396 12.574 4.96185 12.8967 4.70224ZM11.0774 8.60269C11.1525 8.19534 10.8832 7.80423 10.4759 7.72912C10.0685 7.65401 9.6774 7.92333 9.60228 8.33068C9.48535 8.96483 8.95799 9.49219 8.32384 9.60912C7.9165 9.68423 7.64717 10.0753 7.72228 10.4827C7.7974 10.89 8.18851 11.1594 8.59585 11.0843C9.84171 10.8545 10.8477 9.84854 11.0774 8.60269Z" fill="#6F7383"></path></svg>